<mxfile host="app.diagrams.net" agent="Mozilla/5.0 (Windows NT 10.0; Win64; x64) AppleWebKit/537.36 (KHTML, like Gecko) Chrome/128.0.0.0 Safari/537.36" version="24.7.14">
  <diagram name="PÃ¡gina-1" id="2f2UPzV9zlhATGjmx9mv">
    <mxGraphModel dx="819" dy="446" grid="1" gridSize="10" guides="1" tooltips="1" connect="1" arrows="1" fold="1" page="1" pageScale="1" pageWidth="827" pageHeight="1169" math="0" shadow="0">
      <root>
        <mxCell id="0" />
        <mxCell id="1" parent="0" />
        <mxCell id="5HO97Udu_oxN3hNyHG41-3" value="Aluno" style="whiteSpace=wrap;html=1;align=center;" vertex="1" parent="1">
          <mxGeometry x="270" y="120" width="100" height="40" as="geometry" />
        </mxCell>
        <mxCell id="5HO97Udu_oxN3hNyHG41-4" value="&lt;u&gt;NumMec&lt;/u&gt;" style="ellipse;whiteSpace=wrap;html=1;align=center;" vertex="1" parent="1">
          <mxGeometry x="90" y="260" width="100" height="40" as="geometry" />
        </mxCell>
        <mxCell id="5HO97Udu_oxN3hNyHG41-5" value="Nome" style="ellipse;whiteSpace=wrap;html=1;align=center;" vertex="1" parent="1">
          <mxGeometry x="220" y="260" width="100" height="40" as="geometry" />
        </mxCell>
        <mxCell id="5HO97Udu_oxN3hNyHG41-6" value="Sexo" style="ellipse;whiteSpace=wrap;html=1;align=center;" vertex="1" parent="1">
          <mxGeometry x="330" y="260" width="100" height="40" as="geometry" />
        </mxCell>
        <mxCell id="5HO97Udu_oxN3hNyHG41-7" value="DataNasc" style="ellipse;whiteSpace=wrap;html=1;align=center;" vertex="1" parent="1">
          <mxGeometry x="450" y="260" width="100" height="40" as="geometry" />
        </mxCell>
        <mxCell id="5HO97Udu_oxN3hNyHG41-10" value="" style="endArrow=none;html=1;rounded=0;fontFamily=Helvetica;fontSize=12;fontColor=default;exitX=0.5;exitY=0;exitDx=0;exitDy=0;" edge="1" parent="1" source="5HO97Udu_oxN3hNyHG41-4">
          <mxGeometry relative="1" as="geometry">
            <mxPoint x="140" y="250" as="sourcePoint" />
            <mxPoint x="285" y="160" as="targetPoint" />
          </mxGeometry>
        </mxCell>
        <mxCell id="5HO97Udu_oxN3hNyHG41-13" value="" style="endArrow=none;html=1;rounded=0;fontFamily=Helvetica;fontSize=12;fontColor=default;exitX=0.5;exitY=0;exitDx=0;exitDy=0;entryX=0.25;entryY=1;entryDx=0;entryDy=0;" edge="1" parent="1" source="5HO97Udu_oxN3hNyHG41-5" target="5HO97Udu_oxN3hNyHG41-3">
          <mxGeometry relative="1" as="geometry">
            <mxPoint x="200" y="259" as="sourcePoint" />
            <mxPoint x="345" y="160" as="targetPoint" />
          </mxGeometry>
        </mxCell>
        <mxCell id="5HO97Udu_oxN3hNyHG41-14" value="" style="endArrow=none;html=1;rounded=0;fontFamily=Helvetica;fontSize=12;fontColor=default;exitX=0.5;exitY=0;exitDx=0;exitDy=0;entryX=0.596;entryY=1.007;entryDx=0;entryDy=0;entryPerimeter=0;" edge="1" parent="1" source="5HO97Udu_oxN3hNyHG41-6" target="5HO97Udu_oxN3hNyHG41-3">
          <mxGeometry relative="1" as="geometry">
            <mxPoint x="310" y="249" as="sourcePoint" />
            <mxPoint x="329" y="160" as="targetPoint" />
          </mxGeometry>
        </mxCell>
        <mxCell id="5HO97Udu_oxN3hNyHG41-15" value="" style="endArrow=none;html=1;rounded=0;fontFamily=Helvetica;fontSize=12;fontColor=default;exitX=0.5;exitY=0;exitDx=0;exitDy=0;entryX=0.75;entryY=1;entryDx=0;entryDy=0;" edge="1" parent="1" source="5HO97Udu_oxN3hNyHG41-7" target="5HO97Udu_oxN3hNyHG41-3">
          <mxGeometry relative="1" as="geometry">
            <mxPoint x="440" y="259" as="sourcePoint" />
            <mxPoint x="585" y="160" as="targetPoint" />
          </mxGeometry>
        </mxCell>
      </root>
    </mxGraphModel>
  </diagram>
</mxfile>
